<mxfile host="app.diagrams.net" agent="Mozilla/5.0 (Windows NT 10.0; Win64; x64) AppleWebKit/537.36 (KHTML, like Gecko) Chrome/127.0.0.0 Safari/537.36" version="24.7.13">
  <diagram name="Page-1" id="e7e014a7-5840-1c2e-5031-d8a46d1fe8dd">
    <mxGraphModel dx="1094" dy="1579" grid="1" gridSize="10" guides="1" tooltips="1" connect="1" arrows="1" fold="1" page="1" pageScale="1" pageWidth="1169" pageHeight="826" background="none" math="0" shadow="0">
      <root>
        <mxCell id="0" />
        <mxCell id="1" parent="0" />
        <mxCell id="8sZI42-3wzcr4-l2tiee-41" value="- levels : Level* [10]&lt;div&gt;- currentLevel : Level* = null&lt;/div&gt;" style="rounded=0;whiteSpace=wrap;html=1;align=left;" vertex="1" parent="1">
          <mxGeometry x="320" y="60" width="180" height="80" as="geometry" />
        </mxCell>
        <mxCell id="8sZI42-3wzcr4-l2tiee-42" value="+ startLevel (index : int) Level*&lt;div&gt;+ restartCurrentLevel&lt;/div&gt;&lt;div&gt;+ gameOver()&lt;/div&gt;" style="rounded=0;whiteSpace=wrap;html=1;align=left;" vertex="1" parent="1">
          <mxGeometry x="320" y="140" width="180" height="80" as="geometry" />
        </mxCell>
        <mxCell id="8sZI42-3wzcr4-l2tiee-44" value="+ initialize (levelData : LevelData)&lt;div&gt;+ start()&lt;/div&gt;&lt;div&gt;+ restart()&lt;/div&gt;&lt;div&gt;+ getFrogger() :&amp;nbsp;&lt;span style=&quot;background-color: initial;&quot;&gt;Frogger&lt;/span&gt;&lt;/div&gt;" style="rounded=0;whiteSpace=wrap;html=1;align=left;" vertex="1" parent="1">
          <mxGeometry x="680" y="140" width="200" height="80" as="geometry" />
        </mxCell>
        <mxCell id="8sZI42-3wzcr4-l2tiee-46" value="- Obstacle: ArrayList&lt;div&gt;- frogger : Frogger&lt;/div&gt;&lt;div&gt;&lt;br&gt;&lt;/div&gt;" style="rounded=0;whiteSpace=wrap;html=1;align=left;" vertex="1" parent="1">
          <mxGeometry x="680" y="60" width="200" height="80" as="geometry" />
        </mxCell>
        <mxCell id="8sZI42-3wzcr4-l2tiee-47" value="+ spawn()" style="rounded=0;whiteSpace=wrap;html=1;align=left;" vertex="1" parent="1">
          <mxGeometry x="320" y="410" width="180" height="80" as="geometry" />
        </mxCell>
        <mxCell id="8sZI42-3wzcr4-l2tiee-48" value="# x : float&lt;div&gt;# y : float&lt;/div&gt;" style="rounded=0;whiteSpace=wrap;html=1;align=left;" vertex="1" parent="1">
          <mxGeometry x="320" y="330" width="180" height="80" as="geometry" />
        </mxCell>
        <mxCell id="8sZI42-3wzcr4-l2tiee-49" value="&lt;i&gt;GameObject&lt;/i&gt;" style="rounded=0;whiteSpace=wrap;html=1;" vertex="1" parent="1">
          <mxGeometry x="320" y="290" width="180" height="40" as="geometry" />
        </mxCell>
        <mxCell id="8sZI42-3wzcr4-l2tiee-50" value="+ numObstacles : int&lt;div&gt;+ duration : float&lt;/div&gt;&lt;div&gt;+ spawnX : float&lt;/div&gt;&lt;div&gt;+ spawnY : float&lt;/div&gt;" style="rounded=0;whiteSpace=wrap;html=1;align=left;" vertex="1" parent="1">
          <mxGeometry x="680" y="320" width="180" height="120" as="geometry" />
        </mxCell>
        <mxCell id="8sZI42-3wzcr4-l2tiee-51" value="LevelData" style="rounded=0;whiteSpace=wrap;html=1;" vertex="1" parent="1">
          <mxGeometry x="680" y="280" width="180" height="40" as="geometry" />
        </mxCell>
        <mxCell id="8sZI42-3wzcr4-l2tiee-52" value="Moving&lt;div&gt;&lt;br&gt;&lt;/div&gt;" style="rounded=0;whiteSpace=wrap;html=1;align=left;" vertex="1" parent="1">
          <mxGeometry x="950" y="453" width="180" height="80" as="geometry" />
        </mxCell>
        <mxCell id="8sZI42-3wzcr4-l2tiee-53" value="&amp;lt;&amp;lt;Enumeration&amp;gt;&amp;gt;&lt;div&gt;EnemyState&lt;/div&gt;" style="rounded=0;whiteSpace=wrap;html=1;" vertex="1" parent="1">
          <mxGeometry x="950" y="413" width="180" height="40" as="geometry" />
        </mxCell>
        <mxCell id="8sZI42-3wzcr4-l2tiee-54" value="&lt;div&gt;Ride&lt;/div&gt;Left&lt;div&gt;Right&lt;/div&gt;&lt;div&gt;Up&lt;/div&gt;&lt;div&gt;Down&lt;/div&gt;" style="rounded=0;whiteSpace=wrap;html=1;align=left;" vertex="1" parent="1">
          <mxGeometry x="950" y="610" width="180" height="90" as="geometry" />
        </mxCell>
        <mxCell id="8sZI42-3wzcr4-l2tiee-55" value="&amp;lt;&amp;lt;Enumeration&amp;gt;&amp;gt;&lt;div&gt;FroggerDirection&lt;/div&gt;" style="rounded=0;whiteSpace=wrap;html=1;" vertex="1" parent="1">
          <mxGeometry x="950" y="570" width="180" height="40" as="geometry" />
        </mxCell>
        <mxCell id="8sZI42-3wzcr4-l2tiee-56" value="+ changeDirection (dir : FroggerDirection)&lt;div&gt;&lt;br&gt;&lt;/div&gt;" style="rounded=0;whiteSpace=wrap;html=1;align=left;" vertex="1" parent="1">
          <mxGeometry x="460" y="670" width="230" height="80" as="geometry" />
        </mxCell>
        <mxCell id="8sZI42-3wzcr4-l2tiee-57" value="&lt;div&gt;- direction : FroggerDirection&lt;/div&gt;" style="rounded=0;whiteSpace=wrap;html=1;align=left;" vertex="1" parent="1">
          <mxGeometry x="460" y="590" width="230" height="80" as="geometry" />
        </mxCell>
        <mxCell id="8sZI42-3wzcr4-l2tiee-60" value="&amp;lt;&amp;lt;GameObject&amp;gt;&amp;gt;&lt;div&gt;Frogger&lt;/div&gt;" style="rounded=0;whiteSpace=wrap;html=1;" vertex="1" parent="1">
          <mxGeometry x="460" y="550" width="230" height="40" as="geometry" />
        </mxCell>
        <mxCell id="8sZI42-3wzcr4-l2tiee-61" value="+ changeState (state : EnemyState)&lt;div&gt;+ IsOnScreen() : bool&lt;/div&gt;" style="rounded=0;whiteSpace=wrap;html=1;align=left;" vertex="1" parent="1">
          <mxGeometry x="170" y="670" width="200" height="80" as="geometry" />
        </mxCell>
        <mxCell id="8sZI42-3wzcr4-l2tiee-62" value="- health : int&lt;div&gt;- state : EnemyState&lt;/div&gt;" style="rounded=0;whiteSpace=wrap;html=1;align=left;" vertex="1" parent="1">
          <mxGeometry x="170" y="590" width="200" height="80" as="geometry" />
        </mxCell>
        <mxCell id="8sZI42-3wzcr4-l2tiee-65" value="&amp;lt;&amp;lt;GameObject&amp;gt;&amp;gt;&lt;br&gt;Obstacle" style="rounded=0;whiteSpace=wrap;html=1;" vertex="1" parent="1">
          <mxGeometry x="170" y="550" width="200" height="40" as="geometry" />
        </mxCell>
      </root>
    </mxGraphModel>
  </diagram>
</mxfile>
